<svg width="24" height="24" viewBox="0 0 24 24" fill="none" xmlns="http://www.w3.org/2000/svg">
<path d="M15 12C15 13.6569 13.6569 15 12 15M15 12C15 10.3431 13.6569 9 12 9M15 12C15 7.02944 10.9706 3 6 3M12 15C10.3431 15 9 13.6569 9 12M12 15C16.9706 15 21 10.9706 21 6M9 12C9 10.3431 10.3431 9 12 9M9 12C9 16.9706 13.0294 21 18 21M12 9C7.02944 9 3 13.0294 3 18M3 8.60034C6.47333 6.43398 11.1027 6.86009 14.1212 9.87866M8.60034 21C6.43389 17.5267 6.85997 12.8973 9.87859 9.87865M15.3997 3C17.5661 6.47334 17.14 11.1027 14.1214 14.1214M21 15.3997C17.5267 17.566 12.8973 17.1399 9.87877 14.1213" stroke="white" stroke-width="2" stroke-linecap="round" stroke-linejoin="round"/>
</svg>
